<svg xmlns="http://www.w3.org/2000/svg" width="140" height="140" viewBox="0 0 140 140">
  <g transform="translate(5 5)">
    <path d="M5,32 L126,32 L126,118 L5,118 L5,32 Z M6,33 L6,117 L125,117 L125,33 L6,33 Z"/>
    <path d="M0,0 L131,0 L131,131 L0,131 L0,0 Z M1,1 L1,130 L130,130 L130,1 L1,1 Z"/>
    <polygon points="5 123.5 126 123.5 126 122.5 5 122.5"/>
    <polygon points="5 127.5 126 127.5 126 126.5 5 126.5"/>
    <path d="M3.5 16.5L9.25253725 11.828 11.4118981 11.828 5.65936083 16.5 11.4118981 21.172 9.25253725 21.172 3.5 16.5zM13.2775858 22.5L13.2775858 10.5 19.047398 10.5C19.8305301 10.5 20.5042439 10.7639974 21.0685597 11.292 21.6328755 11.8200026 21.9150292 12.446663 21.9150292 13.172L21.9150292 19.828C21.9150292 20.553337 21.6328755 21.1799974 21.0685597 21.708 20.5042439 22.2360026 19.8305301 22.5 19.047398 22.5L13.2775858 22.5zM16.1624919 21.172L17.5963075 21.172C17.9993902 21.172 18.3420054 21.038668 18.6241632 20.772 18.9063211 20.505332 19.047398 20.1906685 19.047398 19.828L19.047398 13.172C19.047398 12.7986648 18.9063211 12.4813346 18.6241632 12.22 18.3420054 11.9586654 17.9993902 11.828 17.5963075 11.828L16.1624919 11.828 16.1624919 21.172zM24.7999352 22.5L24.7999352 13.172C24.7999352 12.4359963 25.084968 11.8066693 25.6550421 11.284 26.2251162 10.7613307 26.9017092 10.5 27.6848413 10.5L30.5697474 10.5C31.3528795 10.5 32.0265933 10.7639974 32.5909091 11.292 33.1552249 11.8200026 33.4373785 12.446663 33.4373785 13.172L33.4373785 22.5 30.5697474 22.5 30.5697474 17.172 27.6848413 17.172 27.6848413 22.5 24.7999352 22.5zM27.6848413 15.828L30.5697474 15.828 30.5697474 13.172C30.5697474 12.7986648 30.4286705 12.4813346 30.1465126 12.22 29.8643547 11.9586654 29.5217396 11.828 29.1186569 11.828 28.7270908 11.828 28.3902339 11.9586654 28.108076 12.22 27.8259181 12.4813346 27.6848413 12.7986648 27.6848413 13.172L27.6848413 15.828zM39.2071907 22.5L39.2071907 17.172C37.2839103 16.9586656 36.3222846 16.0680078 36.3222846 14.5L36.3222846 10.5 39.2071907 10.5 39.2071907 14.5C39.2071907 14.8626685 39.3482675 15.1746654 39.6304254 15.436 39.9125833 15.6973346 40.2494402 15.828 40.6410063 15.828 41.044089 15.828 41.3867041 15.6973346 41.668862 15.436 41.9510199 15.1746654 42.0920967 14.8626685 42.0920967 14.5L42.0920967 10.5 44.9597279 10.5 44.9597279 14.5C44.9597279 16.0680078 44.0038604 16.9586656 42.0920967 17.172L42.0920967 22.5 39.2071907 22.5zM47.844634 22.5L47.844634 10.5 53.6144461 10.5C54.3975782 10.5 55.0712921 10.7639974 55.6356079 11.292 56.1999236 11.8200026 56.4820773 12.446663 56.4820773 13.172L56.4820773 14.5C56.4820773 15.225337 56.1999236 15.8519974 55.6356079 16.38 55.0712921 16.9080026 54.3975782 17.172 53.6144461 17.172L50.7295401 17.172 50.7295401 22.5 47.844634 22.5zM50.7295401 15.828L52.1633556 15.828C52.5664384 15.828 52.9090535 15.6973346 53.1912114 15.436 53.4733693 15.1746654 53.6144461 14.8626685 53.6144461 14.5L53.6144461 13.172C53.6144461 12.7986648 53.4733693 12.4813346 53.1912114 12.22 52.9090535 11.9586654 52.5664384 11.828 52.1633556 11.828L50.7295401 11.828 50.7295401 15.828zM58.658713 22.5L58.658713 10.5 61.5263442 10.5 61.5263442 22.5 58.658713 22.5zM72.3231483 19.828C72.2079819 21.6093422 71.2521144 22.5 69.4555172 22.5L66.5706111 22.5C65.787479 22.5 65.110886 22.2386693 64.5408119 21.716 63.9707378 21.1933307 63.685705 20.5640037 63.685705 19.828L63.685705 13.172C63.685705 12.446663 63.9649796 11.8200026 64.523537 11.292 65.0820945 10.7639974 65.7644457 10.5 66.5706111 10.5L69.4555172 10.5C71.263631 10.5 72.2194985 11.3906578 72.3231483 13.172L70.8893328 13.172C70.7741663 12.2759955 70.2962325 11.828 69.4555172 11.828L68.0044267 11.828C67.6128606 11.828 67.2760037 11.9586654 66.9938458 12.22 66.7116879 12.4813346 66.5706111 12.7986648 66.5706111 13.172L66.5706111 19.828C66.5706111 20.1906685 66.7116879 20.505332 66.9938458 20.772 67.2760037 21.038668 67.6128606 21.172 68.0044267 21.172L69.4555172 21.172C70.3077492 21.172 70.7856829 20.7240045 70.8893328 19.828L72.3231483 19.828zM74.128374 22.5L74.128374 10.5 77.0132801 10.5 77.0132801 15.396 81.6774995 10.5 84.2169078 10.5 78.4470957 16.5 84.2169078 22.5 81.3320017 22.5 77.0132801 17.828 77.0132801 22.5 74.128374 22.5zM86.0048586 22.5L86.0048586 10.5 93.2084863 10.5 93.2084863 11.828 88.8897646 11.828 88.8897646 15.828 91.7746707 15.828 91.7746707 17.172 88.8897646 17.172 88.8897646 21.172 93.2084863 21.172 93.2084863 22.5 86.0048586 22.5zM96.0761175 22.5L96.0761175 10.5 101.84593 10.5C102.629062 10.5 103.302776 10.7639974 103.867091 11.292 104.431407 11.8200026 104.713561 12.446663 104.713561 13.172L104.713561 13.892C104.713561 14.4893363 104.494748 15.0626639 104.057115 15.612 103.619482 16.1613361 102.882428 16.436 101.84593 16.436L103.279745 16.436C103.671311 16.436 104.008168 16.5666654 104.290326 16.828 104.572484 17.0893346 104.713561 17.4066648 104.713561 17.78L104.713561 22.5 101.84593 22.5 101.84593 18.5C101.84593 18.1373315 101.704853 17.8253346 101.422695 17.564 101.140537 17.3026654 100.797922 17.172 100.394839 17.172L98.9610235 17.172 98.9610235 22.5 96.0761175 22.5zM98.9610235 15.828L100.394839 15.828C100.797922 15.828 101.140537 15.6973346 101.422695 15.436 101.704853 15.1746654 101.84593 14.8626685 101.84593 14.5L101.84593 13.172C101.84593 12.7986648 101.704853 12.4813346 101.422695 12.22 101.140537 11.9586654 100.797922 11.828 100.394839 11.828L98.9610235 11.828 98.9610235 15.828zM106.518786 22.5L112.288599 10.5 113.722414 10.5 107.969877 22.5 106.518786 22.5zM123.5 16.5L117.747463 21.172 115.588102 21.172 121.340639 16.5 115.588102 11.828 117.747463 11.828 123.5 16.5zM101.5 74.5075532C101.5 69.5979629 95.3609865 64.945182 85.9488382 62.0598535 88.1208724 52.452163 87.1555238 44.8083085 82.9019568 42.3610666 81.9215247 41.7870222 80.7751733 41.5151064 79.5232369 41.5151064L79.5232369 44.8838407C80.2170811 44.8838407 80.7751733 45.0197986 81.242764 45.2766079 83.2941296 46.4549096 84.1840603 50.9415198 83.4902161 56.7121767 83.3242968 58.1321813 83.0527925 59.627718 82.7209539 61.1534676 79.764574 60.4283589 76.5366898 59.8694209 73.1428863 59.5068666 71.1066042 56.7121767 68.9949042 54.1742962 66.8681207 51.9536507 71.7853649 47.3764019 76.4009376 44.8687343 79.5383204 44.8687343L79.5383204 41.5C79.5383204 41.5 79.5383204 41.5 79.5383204 41.5 75.3903384 41.5 69.9602528 44.4608606 64.4698329 49.5970474 58.979413 44.4910735 53.5493274 41.5604257 49.4013453 41.5604257L49.4013453 44.92916C52.5236445 44.92916 57.1543009 47.4217212 62.071545 51.9687572 59.9598451 54.1894026 57.8481451 56.7121767 55.8420302 59.5068666 52.4331431 59.8694209 49.2052589 60.4283589 46.2488789 61.168574 45.9019568 59.6579309 45.6455361 58.192607 45.4645332 56.7877089 44.7556054 51.017052 45.6304525 46.5304417 47.6667346 45.3370336 48.1192417 45.0651179 48.707501 44.9442664 49.4013453 44.9442664L49.4013453 41.5755322C49.4013453 41.5755322 49.4013453 41.5755322 49.4013453 41.5755322 48.1343253 41.5755322 46.9879739 41.8474479 45.9924582 42.4214923 41.7539747 44.8687343 40.8037097 52.4974823 42.9908276 62.0749599 33.6088463 64.9753948 27.5 69.6130694 27.5 74.5075532 27.5 79.4171435 33.6390135 84.0699245 43.0511618 86.9552529 40.8791276 96.5629435 41.8444762 104.206798 46.0980432 106.65404 47.0784753 107.228084 48.2248267 107.5 49.4918467 107.5 53.6398288 107.5 59.0699144 104.539139 64.5603343 99.4029526 70.0507542 104.508927 75.4808398 107.439574 79.6288219 107.439574 80.8958418 107.439574 82.0421932 107.167659 83.0377089 106.593614 87.2761924 104.146372 88.2264574 96.5176242 86.0393396 86.9401465 95.3911537 84.054818 101.5 79.4020371 101.5 74.5075532zM81.8611904 64.4315633C81.3030982 66.380293 80.609254 68.3894484 79.8249083 70.3986038 79.2064819 69.1900893 78.5578883 67.9815747 77.8489605 66.7730602 77.1551162 65.5645457 76.4160212 64.386244 75.6769262 63.2381552 77.8187933 63.5553902 79.8852426 63.9481575 81.8611904 64.4315633zM74.9529148 80.519913C73.7763962 82.5592813 72.5697106 84.4929046 71.3177742 86.2905699 69.0703221 86.4869535 66.7927028 86.5926986 64.5 86.5926986 62.2223808 86.5926986 59.9447615 86.4869535 57.712393 86.3056764 56.4604566 84.508011 55.2386873 82.5894942 54.0621688 80.5652323 52.9158174 78.5862898 51.875051 76.5771344 50.924786 74.5528725 51.8599674 72.5286107 52.9158174 70.5043488 54.0470852 68.5254063 55.2236038 66.486038 56.4302894 64.5524147 57.6822258 62.7547494 59.9296779 62.5583658 62.2072972 62.4526207 64.5 62.4526207 66.7776192 62.4526207 69.0552385 62.5583658 71.287607 62.7396429 72.5395434 64.5373083 73.7613127 66.4558251 74.9378312 68.480087 76.0841826 70.4590295 77.124949 72.4681849 78.075214 74.4924468 77.124949 76.5167086 76.0841826 78.5409705 74.9529148 80.519913zM79.8249083 78.5560769C80.6394211 80.5803388 81.3332654 82.6046006 81.9064411 84.5684367 79.9304933 85.0518425 77.8489605 85.4597162 75.6920098 85.7769512 76.4311048 84.613756 77.1701998 83.4203479 77.864044 82.1967269 78.5578883 80.9882124 79.2064819 79.7645914 79.8249083 78.5560769zM64.5301671 94.6746395C63.127395 93.2244221 61.7246229 91.6080339 60.3369344 89.8405814 61.6944558 89.9010071 63.0821443 89.9463264 64.4849164 89.9463264 65.9027721 89.9463264 67.3055442 89.9161135 68.6781492 89.8405814 67.3206278 91.6080339 65.9178557 93.2244221 64.5301671 94.6746395zM53.3079902 85.7769512C51.1661231 85.4597162 49.0996739 85.066949 47.123726 84.5835431 47.6818182 82.6348135 48.3756625 80.625658 49.1600082 78.6165026 49.7784346 79.8250172 50.4270281 81.0335317 51.135956 82.2420462 51.8448838 83.4505608 52.5688952 84.6288624 53.3079902 85.7769512zM64.4547493 54.3404669C65.8575214 55.7906844 67.2602935 57.4070726 68.6479821 59.1745251 67.2904607 59.1140993 65.9027721 59.06878 64.5 59.06878 63.0821443 59.06878 61.6793722 59.0989929 60.3067672 59.1745251 61.6642886 57.4070726 63.0670607 55.7906844 64.4547493 54.3404669zM53.2929066 63.2381552C52.5538117 64.4013504 51.8147167 65.5947585 51.1208724 66.8183795 50.4270281 68.026894 49.7784346 69.2354086 49.1600082 70.4439231 48.3454953 68.4196612 47.651651 66.3953994 47.0784753 64.4315633 49.0544232 63.9632639 51.135956 63.5553902 53.2929066 63.2381552zM39.6422748 82.1514076C34.3026906 79.8703365 30.8485528 76.879263 30.8485528 74.5075532 30.8485528 72.1358434 34.3026906 69.1296635 39.6422748 66.8636988 40.9394619 66.3047608 42.3573176 65.8062486 43.820424 65.3379492 44.6801875 68.2988098 45.8114554 71.3805219 47.2142275 74.5377661 45.8265389 77.6799039 44.7103547 80.7465095 43.8656747 83.6922637 42.3724011 83.2239643 40.9545455 82.7103456 39.6422748 82.1514076zM47.757236 103.738499C45.7058704 102.560197 44.8159397 98.0735866 45.5097839 92.3029297 45.6757032 90.8829252 45.9472075 89.3873884 46.2790461 87.8616388 49.235426 88.5867475 52.4633102 89.1456855 55.8571137 89.5082399 57.8933958 92.3029297 60.0050958 94.8408103 62.1318793 97.0614557 57.2146351 101.638705 52.5990624 104.146372 49.4616796 104.146372 48.7829189 104.131266 48.2097432 103.995308 47.757236 103.738499zM83.5354668 92.2273976C84.2443946 97.9980545 83.3695475 102.484665 81.3332654 103.678073 80.8807583 103.949989 80.292499 104.07084 79.5986547 104.07084 76.4763555 104.07084 71.8456991 101.578279 66.928455 97.0312428 69.0401549 94.8105974 71.1518549 92.2878233 73.1579698 89.4931334 76.5668569 89.1305791 79.7947411 88.5716411 82.7511211 87.831426 83.0980432 89.3571756 83.3695475 90.8224994 83.5354668 92.2273976zM89.3426417 82.1514076C88.0454545 82.7103456 86.6275989 83.2088579 85.1644925 83.6771572 84.3047289 80.7162966 83.1734611 77.6345846 81.770689 74.4773404 83.1583775 71.3352026 84.2745618 68.2685969 85.1192417 65.3228428 86.6125153 65.7911421 88.030371 66.3047608 89.3577252 66.8636988 94.6973094 69.14477 98.1514472 72.1358434 98.1514472 74.5075532 98.1363636 76.879263 94.6822258 79.8854429 89.3426417 82.1514076zM64.5 81.5C60.6340068 81.5 57.5 78.3659932 57.5 74.5 57.5 70.6340068 60.6340068 67.5 64.5 67.5 68.3659932 67.5 71.5 70.6340068 71.5 74.5 71.5 78.3659932 68.3659932 81.5 64.5 81.5z"/>
  </g>
</svg>
