<svg height="23.5645" width="21.0997" xmlns="http://www.w3.org/2000/svg"><path d="m0 0h21.0997v23.5645h-21.0997z" opacity="0"/><g fill-opacity=".85"><path d="m.343089 17.7734c1.435551 2.4707 6.386721 1.7578 12.568311-1.8066 6.1719-3.5547 9.2774-7.48047 7.8418-9.96094-1.4355-2.4707-6.3867-1.75781-12.54878 1.79687-6.18164 3.59377-9.26758 7.49997-7.861331 9.97067zm1.259761-.7226c-.957026-1.6406 1.9336-4.7559 7.38282-7.90041 5.40043-3.125 9.56053-4.07227 10.50783-2.41211.9668 1.63086-1.9336 4.75582-7.3438 7.87112-5.43942 3.1445-9.58981 4.0918-10.54685 2.4414z"/><path d="m20.7532 17.7734c1.4161-2.4707-1.6796-6.3769-7.8613-9.97067-6.16209-3.55468-11.1035-4.26757-12.548811-1.79687-1.425779 2.48047 1.669921 6.40624 7.841801 9.96094 6.19141 3.5644 11.14261 4.2773 12.56831 1.8066zm-1.2597-.7226c-.9473 1.6504-5.0977.7031-10.53713-2.4414-5.41992-3.1153-8.320312-6.24026-7.35352-7.87112.94727-1.66016 5.11719-.71289 10.51755 2.41211 5.4395 3.14451 8.3301 6.25981 7.3731 7.90041z"/><path d="m10.5482 23.5645c2.8613 0 4.7168-4.6583 4.7168-11.7872 0-7.09957-1.8555-11.7577688-4.7168-11.7577688-2.86136 0-4.71683 4.6581988-4.71683 11.7577688 0 7.1289 1.85547 11.7872 4.71683 11.7872zm0-1.4356c-1.90433 0-3.1641-4.082-3.1641-10.3516 0-6.25972 1.25977-10.32222 3.1641-10.32222 1.914 0 3.1738 4.0625 3.1738 10.32222 0 6.2696-1.2598 10.3516-3.1738 10.3516z"/><path d="m10.5579 13.8672c1.1426 0 2.0703-.9277 2.0703-2.0801 0-1.1426-.9277-2.0703-2.0703-2.0703-1.15231 0-2.08005.9277-2.08005 2.0703 0 1.1524.92774 2.0801 2.08005 2.0801z"/></g></svg>