<?xml version="1.0" encoding="UTF-8"?>
<svg width="20px" height="20px" viewBox="0 0 20 20" version="1.1" xmlns="http://www.w3.org/2000/svg" xmlns:xlink="http://www.w3.org/1999/xlink">
    <title>chevron</title>
    <g id="chevron" stroke="none" stroke-width="1" fill="none" fill-rule="evenodd" fill-opacity="0.85">
        <path d="M6.10135098,11.4276666 C6.03965671,11.4873364 6,11.56942 6,11.663795 C6,11.8529267 6.1454261,12 6.3362039,12 C6.42728177,12 6.51431351,11.9652948 6.57068726,11.9036027 L9.75077878,8.60522895 L9.34484178,8.60522895 L12.5232926,11.9036027 C12.5812891,11.9652948 12.6740071,12 12.763073,12 C12.9522156,12 13.095626,11.8529267 13.095626,11.663795 C13.095626,11.56942 13.057634,11.488988 12.995931,11.4293182 L9.80182547,8.11327459 C9.73517861,8.03928409 9.64447739,8 9.5488214,8 C9.44949158,8 9.36245874,8.03763392 9.29746347,8.11162409 L6.10135098,11.4276666 Z" id="Path" fill="#000000" fill-rule="nonzero"></path>
    </g>
</svg>