<?xml version="1.0" encoding="UTF-8"?>
<svg version="1.1" xmlns="http://www.w3.org/2000/svg" xmlns:xlink="http://www.w3.org/1999/xlink" width="13.0176"
    height="7.86055">
    <g>
        <rect height="7.86055" opacity="0" width="13.0176" x="0" y="0" />
        <path
            d="M0.185938 6.28838C0.072754 6.39785 0 6.54844 0 6.72158C0 7.06856 0.266798 7.33838 0.616798 7.33838C0.783889 7.33838 0.943557 7.27471 1.04698 7.16153L6.88116 1.11035L6.13643 1.11035L11.9676 7.16153C12.074 7.27471 12.2441 7.33838 12.4075 7.33838C12.7545 7.33838 13.0176 7.06856 13.0176 6.72158C13.0176 6.54844 12.9479 6.40088 12.8347 6.29141L6.97481 0.207813C6.85254 0.0720704 6.68614 0 6.51065 0C6.32842 0 6.16875 0.069043 6.04951 0.204785Z"
            fill="#ffffff" fill-opacity="0.85" />
    </g>
</svg>
