<svg xmlns="http://www.w3.org/2000/svg" width="100px" height="90px" viewBox="0 0 100 90" version="1.1">
    <path
        d="M15.755143,90 L84.2950326,90 C89.5467469,90 93.4771701,88.7370994 96.0863021,86.2112982 C98.695434,83.685497 100,79.8967952 100,74.8451928 L100,15.1548072 C100,10.1032048 98.695434,6.31450299 96.0863021,3.78870179 C93.4771701,1.2629006 89.5467469,0 84.2950326,0 L15.755143,0 C10.5034287,0 6.56464292,1.2629006 3.93878575,3.78870179 C1.31292858,6.31450299 0,10.1032048 0,15.1548072 L0,74.8451928 C0,79.8967952 1.31292858,83.685497 3.93878575,86.2112982 C6.56464292,88.7370994 10.5034287,90 15.755143,90 Z M15.0025088,82.1292776 C12.7947817,82.1292776 11.0888108,81.5507876 9.88459609,80.3938077 C8.68038133,79.2368278 8.07827396,77.5339489 8.07827396,75.2851711 L8.07827396,29.1852254 C8.07827396,26.9364476 8.68038133,25.2335687 9.88459609,24.0765888 C11.0888108,22.9196089 12.7947817,22.341119 15.0025088,22.341119 L84.9473156,22.341119 C87.1884931,22.341119 88.9111892,22.9196089 90.1154039,24.0765888 C91.3196187,25.2335687 91.921726,26.9364476 91.921726,29.1852254 L91.921726,75.2851711 C91.921726,77.5339489 91.3196187,79.2368278 90.1154039,80.3938077 C88.9111892,81.5507876 87.1884931,82.1292776 84.9473156,82.1292776 L15.0025088,82.1292776 Z M43.3717146,73.9280844 C44.7889955,74.3502579 46.2393891,74.1954778 47.7228954,73.463744 C49.2064016,72.7320102 50.6703958,71.4900074 52.114878,69.7377357 C53.5593601,67.985464 54.9378809,65.7811524 56.2504404,63.124801 C57.5629999,60.4684496 58.7589429,57.4204664 59.8382694,53.9808513 C60.9136568,50.5537896 61.6685768,47.3847313 62.1030294,44.4736766 C62.537482,41.5626219 62.6578069,38.9903877 62.4640042,36.7569741 C62.2702015,34.5235606 61.7683442,32.6994101 60.9584322,31.2845228 C60.1485202,29.8696355 59.0349238,28.9511051 57.6176429,28.5289316 C56.2003619,28.1067581 54.7499683,28.2615382 53.2664621,28.993272 C51.7829558,29.7250058 50.3199464,30.9638702 48.8774338,32.7098653 C47.4349213,34.4558603 46.05837,36.6538953 44.7477801,39.30397 C43.4371902,41.9540447 42.2442016,44.9926129 41.1688142,48.4196747 C40.0894877,51.8592897 39.3316133,55.037763 38.8951912,57.9550943 C38.458769,60.8724257 38.3364745,63.4509366 38.5283076,65.6906268 C38.7201407,67.9303171 39.2210133,69.7576059 40.0309252,71.1724932 C40.8408372,72.5873805 41.9544337,73.5059109 43.3717146,73.9280844 Z M44.2402967,71.160073 C42.9776282,70.7839548 42.1382345,69.6313882 41.7221154,67.7023733 C41.3059964,65.7733584 41.305787,63.2372853 41.7214871,60.0941538 C42.1371872,56.9510224 42.9772705,53.3646456 44.241737,49.3350236 C45.5022643,45.3179549 46.8612103,41.8964298 48.318575,39.0704483 C49.7759397,36.2444667 51.2296947,34.1483576 52.67984,32.7821208 C54.1299854,31.415884 55.4863923,30.9208248 56.7490608,31.296943 C58.0117292,31.6730612 58.8553288,32.8234489 59.2798596,34.7481061 C59.7043904,36.6727633 59.7097906,39.2035193 59.29606,42.3403741 C58.8823295,45.4772288 58.0452005,49.0541906 56.7846732,53.0712593 C55.5202067,57.1008813 54.1583064,60.5318214 52.6989721,63.3640796 C51.2396379,66.1963378 49.7806922,68.2977642 48.3221351,69.6683586 C46.863578,71.0389531 45.5029652,71.5361912 44.2402967,71.160073 Z M26.6793333,56.7459161 C27.0137547,58.1495702 27.8764142,59.2953403 29.2673117,60.1832265 C30.6582092,61.0711128 32.4906419,61.6855835 34.76461,62.0266387 C37.038578,62.3676939 39.6889413,62.4296568 42.7157,62.2125272 C45.7424587,61.9953977 49.0524678,61.4817251 52.6457272,60.6715096 C56.2350475,59.8738475 59.4370365,58.9299236 62.2516941,57.8397381 C65.0663516,56.7495525 67.417254,55.5658374 69.304401,54.2885926 C71.1915481,53.0113479 72.5605302,51.6792731 73.4113474,50.2923683 C74.2621645,48.9054635 74.522332,47.5039074 74.1918497,46.0877 C73.8574283,44.684046 72.9947688,43.5382759 71.6038713,42.6503896 C70.2129738,41.7625034 68.3805411,41.1480327 66.1065731,40.8069775 C63.832605,40.4659222 61.1896687,40.40274 58.1777639,40.6174309 C55.1658592,40.8321217 51.8632771,41.3445748 48.2700176,42.1547903 C44.672819,42.9775592 41.4668909,43.9340364 38.6522333,45.0242219 C35.8375758,46.1144075 33.4824676,47.3003015 31.5869087,48.5819039 C29.6913499,49.8635063 28.3191467,51.1946216 27.4702991,52.5752498 C26.6214515,53.9558779 26.3577963,55.3461001 26.6793333,56.7459161 Z M29.6097047,56.095137 C29.3092589,54.8525974 29.9071898,53.5756746 31.4034974,52.2643686 C32.899805,50.9530625 35.1495198,49.6877309 38.1526417,48.4683736 C41.1557637,47.2490164 44.771796,46.1641867 49.0007387,45.2138846 C53.187089,44.264622 56.9016425,43.6964377 60.144399,43.5093319 C63.3871555,43.3222261 65.9755797,43.5030059 67.9096717,44.0516714 C69.8437636,44.6003369 70.9590629,45.5022162 71.2555695,46.7573091 C71.5599545,47.9872954 70.9662295,49.2620394 69.4743945,50.5815411 C67.9825596,51.9010427 65.739287,53.1682933 62.7445767,54.3832929 C59.7498665,55.5982925 56.1548636,56.6722279 51.959568,57.6050992 C47.7306254,58.5554013 43.9905699,59.1262842 40.7394017,59.3177477 C37.4882334,59.5092113 34.8946185,59.3337486 32.958557,58.7913598 C31.0224955,58.2489709 29.9062114,57.35023 29.6097047,56.095137 Z M67.0718399,68.7778614 C68.1418151,67.792543 68.7211374,66.4963504 68.8098071,64.8892837 C68.8984767,63.2822171 68.5248475,61.4310608 67.6889194,59.3358148 C66.8529913,57.2405689 65.5843699,54.975254 63.883055,52.5398701 C62.1817402,50.1044861 60.0696437,47.5638988 57.5467655,44.9181079 C55.0328326,42.2887084 52.5889847,40.0645335 50.2152219,38.2455833 C47.8414592,36.4266331 45.6141029,35.0390735 43.5331531,34.0829047 C41.4522033,33.1267358 39.5836002,32.638758 37.9273437,32.6189711 C36.2710872,32.5991843 34.895087,33.0781122 33.7993431,34.0557547 C32.7125444,35.0497886 32.1238255,36.3534772 32.0331863,37.9668205 C31.9425471,39.5801639 32.3161763,41.4313202 33.154074,43.5202895 C33.9919716,45.6092587 35.2615778,47.8714353 36.9628927,50.3068192 C38.6642075,52.7422031 40.773801,55.2683182 43.2916731,57.8851644 C45.8184904,60.5184019 48.2710167,62.7485936 50.6492521,64.5757394 C53.0274876,66.4028853 55.2603012,67.7955021 57.3476932,68.7535899 C59.4350851,69.7116778 61.3069094,70.2006151 62.9631659,70.2204019 C64.6194224,70.2401888 65.9889804,69.7593419 67.0718399,68.7778614 Z M65.0159593,66.6417991 C64.0497975,67.5207739 62.6085337,67.6576835 60.692168,67.052528 C58.7758022,66.4473724 56.5248932,65.1797692 53.9394409,63.2497184 C51.3539886,61.3196675 48.5874361,58.8106244 45.6397835,55.7225891 C42.6971369,52.6634984 40.3298966,49.8135558 38.5380626,47.1727611 C36.7462286,44.5319664 35.6105746,42.2582158 35.1311007,40.3515091 C34.6516267,38.4448025 34.8912529,37.0645151 35.849315,36.2106471 C36.8154768,35.3316723 38.2609464,35.1925838 40.185724,35.7933817 C42.1105015,36.3941795 44.360159,37.6545466 46.9346965,39.5744828 C49.509234,41.4944191 52.2658564,43.9902092 55.2045638,47.0618532 C58.1522165,50.1498885 60.5241961,53.0184013 62.3205027,55.6673916 C64.1168094,58.3163819 65.2556845,60.5910921 65.737128,62.4915221 C66.2185715,64.391952 65.9779606,65.7753777 65.0159593,66.6417991 Z M49.2584019,55.2356419 C50.3922266,55.5733807 51.4806681,55.4720728 52.5237264,54.9317181 C53.5667846,54.3913634 54.2636058,53.5625624 54.61419,52.4453152 C54.9568958,51.3531746 54.8519316,50.2958363 54.2992973,49.2733002 C53.7466629,48.2507642 52.9034334,47.5706267 51.7696087,47.2328879 C50.6357839,46.8951491 49.5431365,46.9986359 48.4916665,47.5433483 C47.4401965,48.0880607 46.7431086,48.9064872 46.4004028,49.9986277 C46.0498186,51.115875 46.1550496,52.1835878 46.7160956,53.2017661 C47.2771417,54.2199445 48.1245772,54.8979031 49.2584019,55.2356419 Z"
        fill="#000000" fill-rule="nonzero"></path>
</svg>
