<?xml version="1.0" encoding="UTF-8"?>
<svg width="16px" height="16px" viewBox="0 0 16 16" version="1.1" xmlns="http://www.w3.org/2000/svg" xmlns:xlink="http://www.w3.org/1999/xlink">
    <title>sublist-icon</title>
    <g id="sublist-icon" stroke="none" stroke-width="1" fill="none" fill-rule="evenodd" fill-opacity="0.5">
        <path d="M9.88495575,10 C10.0737463,10 10.2241888,9.84955752 10.2241888,9.65781711 C10.2241888,9.56342183 10.1917404,9.48082596 10.1268437,9.41887906 L7.87905605,7.1179941 C7.80530973,7.04129794 7.71386431,7 7.61356932,7 C7.51327434,7 7.42477876,7.03834808 7.3480826,7.1179941 L5.10029499,9.41887906 C5.03539823,9.48082596 5,9.56342183 5,9.65781711 C5,9.84955752 5.15044248,10 5.34218289,10 C5.43657817,10 5.52507375,9.96460177 5.5899705,9.89675516 L7.61356932,7.82300885 L9.63716814,9.89675516 C9.7020649,9.96460177 9.79056047,10 9.88495575,10 Z" id="􀆇" fill="#000000" fill-rule="nonzero"></path>
    </g>
</svg>