<svg xmlns="http://www.w3.org/2000/svg" width="128" height="22" viewBox="0 0 128 22">
  <path fill="#FFF" d="M4,11 L9.75253725,6.328 L11.9118981,6.328 L6.15936083,11 L11.9118981,15.672 L9.75253725,15.672 L4,11 Z M13.7775858,17 L13.7775858,5 L19.547398,5 C20.3305301,5 21.0042439,5.26399736 21.5685597,5.792 C22.1328755,6.32000264 22.4150292,6.94666304 22.4150292,7.672 L22.4150292,14.328 C22.4150292,15.053337 22.1328755,15.6799974 21.5685597,16.208 C21.0042439,16.7360026 20.3305301,17 19.547398,17 L13.7775858,17 Z M16.6624919,15.672 L18.0963075,15.672 C18.4993902,15.672 18.8420054,15.538668 19.1241632,15.272 C19.4063211,15.005332 19.547398,14.6906685 19.547398,14.328 L19.547398,7.672 C19.547398,7.2986648 19.4063211,6.98133464 19.1241632,6.72 C18.8420054,6.45866536 18.4993902,6.328 18.0963075,6.328 L16.6624919,6.328 L16.6624919,15.672 Z M25.2999352,17 L25.2999352,7.672 C25.2999352,6.93599632 25.584968,6.30666928 26.1550421,5.784 C26.7251162,5.26133072 27.4017092,5 28.1848413,5 L31.0697474,5 C31.8528795,5 32.5265933,5.26399736 33.0909091,5.792 C33.6552249,6.32000264 33.9373785,6.94666304 33.9373785,7.672 L33.9373785,17 L31.0697474,17 L31.0697474,11.672 L28.1848413,11.672 L28.1848413,17 L25.2999352,17 Z M28.1848413,10.328 L31.0697474,10.328 L31.0697474,7.672 C31.0697474,7.2986648 30.9286705,6.98133464 30.6465126,6.72 C30.3643547,6.45866536 30.0217396,6.328 29.6186569,6.328 C29.2270908,6.328 28.8902339,6.45866536 28.608076,6.72 C28.3259181,6.98133464 28.1848413,7.2986648 28.1848413,7.672 L28.1848413,10.328 Z M39.7071907,17 L39.7071907,11.672 C37.7839103,11.4586656 36.8222846,10.5680078 36.8222846,9 L36.8222846,5 L39.7071907,5 L39.7071907,9 C39.7071907,9.36266848 39.8482675,9.67466536 40.1304254,9.936 C40.4125833,10.1973346 40.7494402,10.328 41.1410063,10.328 C41.544089,10.328 41.8867041,10.1973346 42.168862,9.936 C42.4510199,9.67466536 42.5920967,9.36266848 42.5920967,9 L42.5920967,5 L45.4597279,5 L45.4597279,9 C45.4597279,10.5680078 44.5038604,11.4586656 42.5920967,11.672 L42.5920967,17 L39.7071907,17 Z M48.344634,17 L48.344634,5 L54.1144461,5 C54.8975782,5 55.5712921,5.26399736 56.1356079,5.792 C56.6999236,6.32000264 56.9820773,6.94666304 56.9820773,7.672 L56.9820773,9 C56.9820773,9.72533696 56.6999236,10.3519974 56.1356079,10.88 C55.5712921,11.4080026 54.8975782,11.672 54.1144461,11.672 L51.2295401,11.672 L51.2295401,17 L48.344634,17 Z M51.2295401,10.328 L52.6633556,10.328 C53.0664384,10.328 53.4090535,10.1973346 53.6912114,9.936 C53.9733693,9.67466536 54.1144461,9.36266848 54.1144461,9 L54.1144461,7.672 C54.1144461,7.2986648 53.9733693,6.98133464 53.6912114,6.72 C53.4090535,6.45866536 53.0664384,6.328 52.6633556,6.328 L51.2295401,6.328 L51.2295401,10.328 Z M59.158713,17 L59.158713,5 L62.0263442,5 L62.0263442,17 L59.158713,17 Z M72.8231483,14.328 C72.7079819,16.1093422 71.7521144,17 69.9555172,17 L67.0706111,17 C66.287479,17 65.610886,16.7386693 65.0408119,16.216 C64.4707378,15.6933307 64.185705,15.0640037 64.185705,14.328 L64.185705,7.672 C64.185705,6.94666304 64.4649796,6.32000264 65.023537,5.792 C65.5820945,5.26399736 66.2644457,5 67.0706111,5 L69.9555172,5 C71.763631,5 72.7194985,5.89065776 72.8231483,7.672 L71.3893328,7.672 C71.2741663,6.77599552 70.7962325,6.328 69.9555172,6.328 L68.5044267,6.328 C68.1128606,6.328 67.7760037,6.45866536 67.4938458,6.72 C67.2116879,6.98133464 67.0706111,7.2986648 67.0706111,7.672 L67.0706111,14.328 C67.0706111,14.6906685 67.2116879,15.005332 67.4938458,15.272 C67.7760037,15.538668 68.1128606,15.672 68.5044267,15.672 L69.9555172,15.672 C70.8077492,15.672 71.2856829,15.2240045 71.3893328,14.328 L72.8231483,14.328 Z M74.628374,17 L74.628374,5 L77.5132801,5 L77.5132801,9.896 L82.1774995,5 L84.7169078,5 L78.9470957,11 L84.7169078,17 L81.8320017,17 L77.5132801,12.328 L77.5132801,17 L74.628374,17 Z M86.5048586,17 L86.5048586,5 L93.7084863,5 L93.7084863,6.328 L89.3897646,6.328 L89.3897646,10.328 L92.2746707,10.328 L92.2746707,11.672 L89.3897646,11.672 L89.3897646,15.672 L93.7084863,15.672 L93.7084863,17 L86.5048586,17 Z M96.5761175,17 L96.5761175,5 L102.34593,5 C103.129062,5 103.802776,5.26399736 104.367091,5.792 C104.931407,6.32000264 105.213561,6.94666304 105.213561,7.672 L105.213561,8.392 C105.213561,8.98933632 104.994748,9.56266392 104.557115,10.112 C104.119482,10.6613361 103.382428,10.936 102.34593,10.936 L103.779745,10.936 C104.171311,10.936 104.508168,11.0666654 104.790326,11.328 C105.072484,11.5893346 105.213561,11.9066648 105.213561,12.28 L105.213561,17 L102.34593,17 L102.34593,13 C102.34593,12.6373315 102.204853,12.3253346 101.922695,12.064 C101.640537,11.8026654 101.297922,11.672 100.894839,11.672 L99.4610235,11.672 L99.4610235,17 L96.5761175,17 Z M99.4610235,10.328 L100.894839,10.328 C101.297922,10.328 101.640537,10.1973346 101.922695,9.936 C102.204853,9.67466536 102.34593,9.36266848 102.34593,9 L102.34593,7.672 C102.34593,7.2986648 102.204853,6.98133464 101.922695,6.72 C101.640537,6.45866536 101.297922,6.328 100.894839,6.328 L99.4610235,6.328 L99.4610235,10.328 Z M107.018786,17 L112.788599,5 L114.222414,5 L108.469877,17 L107.018786,17 Z M124,11 L118.247463,15.672 L116.088102,15.672 L121.840639,11 L116.088102,6.328 L118.247463,6.328 L124,11 Z"/>
</svg>
